<svg width="390" height="844" viewBox="0 0 390 844" fill="none" xmlns="http://www.w3.org/2000/svg">
<rect width="390" height="844" rx="24" fill="#ECEEF2"/>
<rect x="1" y="1" width="388" height="842" rx="23" stroke="#D1D5DB" stroke-width="2"/>
<rect x="0" y="0" width="390" height="88" rx="24" fill="#FFFFFF"/>
<text x="36" y="54" font-size="28">🔔</text>
<text x="168" y="52" font-size="34" font-weight="700" fill="#1F2937">Spacely</text>
<text x="338" y="54" font-size="26">👤</text>

<rect x="18" y="102" width="354" height="74" rx="14" fill="#111827"/>
<text x="34" y="131" font-size="14" fill="#9CA3AF">מצב נהיגה מהיר</text>
<text x="34" y="156" font-size="22" fill="white" font-weight="700">חניון מומלץ: עזריאלי · 78 פנויים</text>

<rect x="18" y="190" width="354" height="170" rx="16" fill="#DDE7F9" stroke="#C7D6F5"/>
<text x="152" y="218" font-size="16" fill="#334155">מפה מקוצרת</text>
<circle cx="195" cy="280" r="11" fill="#3B82F6" stroke="#FFFFFF" stroke-width="4"/>
<circle cx="125" cy="260" r="18" fill="#22C55E"/><text x="116" y="266" font-size="12" fill="white" font-weight="700">78</text>
<circle cx="252" cy="262" r="18" fill="#22C55E"/><text x="243" y="268" font-size="12" fill="white" font-weight="700">45</text>

<rect x="18" y="376" width="354" height="114" rx="16" fill="#FFFFFF" stroke="#D7DCE5"/>
<text x="30" y="410" font-size="24" font-weight="700" fill="#111827">חניון עזריאלי</text>
<text x="30" y="438" font-size="16" fill="#6B7280">דרך מנחם בגין 132</text>
<text x="258" y="412" font-size="28" font-weight="700" fill="#16A34A">78</text>
<text x="260" y="438" font-size="16" fill="#111827">₪15/שעה</text>

<rect x="18" y="506" width="354" height="66" rx="14" fill="#FFFFFF" stroke="#D7DCE5"/>
<text x="30" y="548" font-size="22" font-weight="700" fill="#111827">חניון דיזנגוף · 45 · ₪12</text>

<rect x="18" y="588" width="354" height="66" rx="14" fill="#FFFFFF" stroke="#D7DCE5"/>
<text x="30" y="630" font-size="22" font-weight="700" fill="#111827">חניון הבימה · 9 · ₪18</text>

<rect x="18" y="674" width="168" height="64" rx="14" fill="#FFFFFF" stroke="#CBD5E1"/>
<text x="78" y="714" font-size="24" fill="#111827">נווט</text>
<rect x="204" y="674" width="168" height="64" rx="14" fill="#2F61DA"/>
<text x="235" y="714" font-size="24" fill="white" font-weight="700">התחל חניה</text>

<rect x="18" y="754" width="354" height="70" rx="14" fill="#EEF4FF" stroke="#C7D6F5"/>
<text x="58" y="798" font-size="18" fill="#334155">לחיצה על ׳התחל חניה׳ → LPR → מסך שעון פעיל</text>
</svg>
