<svg width="390" height="844" viewBox="0 0 390 844" fill="none" xmlns="http://www.w3.org/2000/svg">
<rect width="390" height="844" rx="24" fill="#ECEEF2"/>
<rect x="1" y="1" width="388" height="842" rx="23" stroke="#D1D5DB" stroke-width="2"/>
<rect x="0" y="0" width="390" height="88" rx="24" fill="#FFFFFF"/>
<text x="36" y="54" font-size="28">🔔</text>
<text x="168" y="52" font-size="34" font-weight="700" fill="#1F2937">Spacely</text>
<text x="338" y="54" font-size="26">👤</text>

<text x="24" y="124" font-size="26" font-weight="700" fill="#111827">איתור חניה - זרימה מודרכת</text>

<rect x="18" y="140" width="354" height="86" rx="14" fill="#FFFFFF" stroke="#D7DCE5"/>
<circle cx="42" cy="168" r="12" fill="#2F61DA"/><text x="38" y="173" font-size="12" fill="white" font-weight="700">1</text>
<text x="64" y="173" font-size="18" font-weight="700" fill="#111827">בחירת רכב</text>
<text x="64" y="201" font-size="15" fill="#6B7280">7875239 · מיצובישי אאוטלנדר</text>
<rect x="260" y="170" width="98" height="34" rx="10" fill="#FFFFFF" stroke="#CBD5E1"/><text x="286" y="192" font-size="14">החלף</text>

<rect x="18" y="238" width="354" height="240" rx="14" fill="#FFFFFF" stroke="#D7DCE5"/>
<circle cx="42" cy="266" r="12" fill="#2F61DA"/><text x="38" y="271" font-size="12" fill="white" font-weight="700">2</text>
<text x="64" y="271" font-size="18" font-weight="700" fill="#111827">בחר חניון</text>
<rect x="30" y="286" width="330" height="180" rx="12" fill="#DDE7F9"/>
<circle cx="196" cy="370" r="11" fill="#3B82F6" stroke="#FFFFFF" stroke-width="4"/>
<circle cx="130" cy="330" r="18" fill="#22C55E"/><text x="121" y="336" font-size="12" fill="white" font-weight="700">78</text>
<circle cx="248" cy="334" r="18" fill="#22C55E"/><text x="239" y="340" font-size="12" fill="white" font-weight="700">45</text>

<rect x="18" y="490" width="354" height="228" rx="14" fill="#FFFFFF" stroke="#D7DCE5"/>
<circle cx="42" cy="518" r="12" fill="#2F61DA"/><text x="38" y="523" font-size="12" fill="white" font-weight="700">3</text>
<text x="64" y="523" font-size="18" font-weight="700" fill="#111827">כניסה וחניה</text>

<rect x="30" y="538" width="330" height="50" rx="10" fill="#F8FAFC" stroke="#CBD5E1"/>
<text x="44" y="569" font-size="17" fill="#111827">חניון עזריאלי · 78 פנויים · ₪15</text>

<rect x="30" y="602" width="160" height="42" rx="12" fill="#FFFFFF" stroke="#CBD5E1"/><text x="92" y="629" font-size="18" fill="#111827">נווט</text>
<rect x="200" y="602" width="160" height="42" rx="12" fill="#2F61DA"/><text x="240" y="629" font-size="18" fill="white" font-weight="700">התחל LPR</text>

<rect x="30" y="660" width="330" height="44" rx="12" fill="#EEF4FF" stroke="#C7D6F5"/>
<text x="80" y="688" font-size="16" fill="#334155">לאחר LPR עוברים למסך שעון רץ</text>
</svg>
